<svg xmlns="http://www.w3.org/2000/svg" width="18" height="20" viewBox="0 0 18 20">
  <path id="Icon_weather-lightning" data-name="Icon weather-lightning" d="M9.552,27.092h.5l8.821-10.946q.173-.29-.192-.29H15.039L18.873,10c.115-.194.026-.29-.256-.29H13.732a.486.486,0,0,0-.372.194L9.8,17.855c-.026.194.051.29.244.29h3.526Zm10.9-6.806H20.8l6.692-8.247a.214.214,0,0,0,.051-.215c-.026-.054-.1-.075-.218-.075H24.629l2.795-4.333q.231-.323-.231-.323H23.681a.426.426,0,0,0-.385.2l-2.667,5.892c-.038.1-.038.172.013.226a.316.316,0,0,0,.244.075H23.5Z" transform="translate(-9.552 -7.092)" fill="#ff5722"/>
</svg>
