<svg xmlns="http://www.w3.org/2000/svg" width="23.079" height="16" viewBox="0 0 23.079 16">
  <g id="delivery" transform="translate(0 -78.521)">
    <g id="Group_11233" data-name="Group 11233" transform="translate(14.521 88.703)">
      <g id="Group_11232" data-name="Group 11232">
        <path id="Path_9952" data-name="Path 9952" d="M325.06,304.4a2.909,2.909,0,1,0,2.909,2.909A2.912,2.912,0,0,0,325.06,304.4Zm0,4.364a1.455,1.455,0,1,1,1.455-1.455A1.456,1.456,0,0,1,325.06,308.767Z" transform="translate(-322.151 -304.403)" fill="#a0a0a0"/>
      </g>
    </g>
    <g id="Group_11235" data-name="Group 11235" transform="translate(4.582 88.703)">
      <g id="Group_11234" data-name="Group 11234">
        <path id="Path_9953" data-name="Path 9953" d="M104.556,304.4a2.909,2.909,0,1,0,2.909,2.909A2.912,2.912,0,0,0,104.556,304.4Zm0,4.364a1.455,1.455,0,1,1,1.455-1.455A1.456,1.456,0,0,1,104.556,308.767Z" transform="translate(-101.647 -304.403)" fill="#a0a0a0"/>
      </g>
    </g>
    <g id="Group_11237" data-name="Group 11237" transform="translate(14.909 79.976)">
      <g id="Group_11236" data-name="Group 11236">
        <path id="Path_9954" data-name="Path 9954" d="M335.236,111.191a.728.728,0,0,0-.65-.4h-3.83v1.455h3.382l1.98,3.939,1.3-.654Z" transform="translate(-330.756 -110.79)" fill="#a0a0a0"/>
      </g>
    </g>
    <g id="Group_11239" data-name="Group 11239" transform="translate(9.746 90.909)">
      <g id="Group_11238" data-name="Group 11238">
        <rect id="Rectangle_4058" data-name="Rectangle 4058" width="5.503" height="1.455" fill="#a0a0a0"/>
      </g>
    </g>
    <g id="Group_11241" data-name="Group 11241" transform="translate(2.061 90.909)">
      <g id="Group_11240" data-name="Group 11240">
        <path id="Path_9955" data-name="Path 9955" d="M48.963,353.345H46.442a.727.727,0,0,0,0,1.455h2.521a.727.727,0,1,0,0-1.455Z" transform="translate(-45.715 -353.345)" fill="#a0a0a0"/>
      </g>
    </g>
    <g id="Group_11243" data-name="Group 11243" transform="translate(2.061 78.521)">
      <g id="Group_11242" data-name="Group 11242">
        <path id="Path_9956" data-name="Path 9956" d="M66.581,86.463,65.15,84.62a.726.726,0,0,0-.574-.281H59.291V79.248a.727.727,0,0,0-.727-.727H46.442a.727.727,0,1,0,0,1.455H57.836v5.091a.727.727,0,0,0,.727.727H64.22l1.059,1.364v3.751H63.267a.727.727,0,0,0,0,1.455h2.739a.727.727,0,0,0,.727-.727V86.909A.728.728,0,0,0,66.581,86.463Z" transform="translate(-45.715 -78.521)" fill="#a0a0a0"/>
      </g>
    </g>
    <g id="Group_11245" data-name="Group 11245" transform="translate(1.188 87.224)">
      <g id="Group_11244" data-name="Group 11244">
        <path id="Path_9957" data-name="Path 9957" d="M30.426,271.6H27.08a.727.727,0,0,0,0,1.455h3.345a.727.727,0,0,0,0-1.455Z" transform="translate(-26.353 -271.597)" fill="#a0a0a0"/>
      </g>
    </g>
    <g id="Group_11247" data-name="Group 11247" transform="translate(0 84.363)">
      <g id="Group_11246" data-name="Group 11246">
        <path id="Path_9958" data-name="Path 9958" d="M6.933,208.134H.727a.727.727,0,0,0,0,1.455H6.933a.727.727,0,0,0,0-1.455Z" transform="translate(0 -208.134)" fill="#a0a0a0"/>
      </g>
    </g>
    <g id="Group_11249" data-name="Group 11249" transform="translate(1.188 81.503)">
      <g id="Group_11248" data-name="Group 11248">
        <path id="Path_9959" data-name="Path 9959" d="M33.286,144.672H27.08a.727.727,0,0,0,0,1.455h6.206a.727.727,0,0,0,0-1.455Z" transform="translate(-26.353 -144.672)" fill="#a0a0a0"/>
      </g>
    </g>
  </g>
</svg>
