<svg id="Group_11298" data-name="Group 11298" xmlns="http://www.w3.org/2000/svg" width="54" height="54" viewBox="0 0 54 54">
  <circle id="Ellipse_3" data-name="Ellipse 3" cx="27" cy="27" r="27" fill="#e6f5ff"/>
  <path id="high-hills-shoe" d="M4.894,34.562H3a.5.5,0,0,1-.5-.439L2.257,32.1l0-.013L.172,15.214a19.207,19.207,0,0,1,0-5.039C.607,7.632,2.982,4.619,3.162,4.394a.493.493,0,0,1,.072-.076h0l.031-.025A.5.5,0,0,1,3.614,4.2h0l.022,0h0a.5.5,0,0,1,.3.17l.014.017c.2.257,13.047,16.647,15.8,19A8.469,8.469,0,0,0,25.269,25.5c.867-.06,5.214-.266,6.1,1.5a4.76,4.76,0,0,1,.365,2.6s0,.007,0,.01a4.122,4.122,0,0,1-1.664,3.122,16.511,16.511,0,0,1-8.156,1.833c-4.949,0-5.951-.124-8.054-4.035l-.011-.02c-.362-.674-.709-1.334-1.048-1.978a34.382,34.382,0,0,0-4.49-7.2,9.044,9.044,0,0,0-2.194-1.78.484.484,0,0,0-.72.424V34.062A.5.5,0,0,1,4.894,34.562Zm-1.448-1h.948V32.53H3.319ZM15.574,31.49c1.352,2.068,2.411,2.068,6.336,2.068a15.537,15.537,0,0,0,7.664-1.7,2.53,2.53,0,0,0,.964-1.428,23.337,23.337,0,0,1-8.643,2.1A17.323,17.323,0,0,1,15.574,31.49Zm-.9-1.557c.447.288,2.723,1.6,7.221,1.6a23.511,23.511,0,0,0,8.859-2.3,3.61,3.61,0,0,0-.285-1.783c-.415-.83-3.031-1.057-4.895-.962a2.93,2.93,0,0,1-1.558,1.014c-1.35.367-3.028-.07-4.988-1.3C14.806,23.55,5.555,8.868,3.519,5.586a13.532,13.532,0,0,0-2.357,4.757,18.484,18.484,0,0,0,0,4.74L3.2,31.529h1.2V19.975a1.485,1.485,0,0,1,2.208-1.3,10.044,10.044,0,0,1,2.441,1.975,35,35,0,0,1,4.641,7.409C14,28.671,14.334,29.3,14.675,29.933ZM9.511,12.984c3.451,5.1,7.677,10.878,10.051,12.365,1.689,1.058,3.139,1.467,4.194,1.18a2.2,2.2,0,0,0,.31-.109,9.777,9.777,0,0,1-4.955-2.267C17.588,22.853,13.271,17.644,9.511,12.984Z" transform="translate(11.118 7.62)" fill="#1da1f2"/>
</svg>
