<svg xmlns="http://www.w3.org/2000/svg" width="17.59" height="16.937" viewBox="0 0 17.59 16.937">
  <path id="Path_9975" data-name="Path 9975" d="M24.128,19.226c-.847-1.048-2.513-1.662-2.513-6.355,0-4.816-2.265-6.752-4.377-7.217-.2-.046-.341-.108-.341-.3V5.2a1.344,1.344,0,0,0-2.683,0v.15c0,.191-.143.258-.341.3-2.117.47-4.377,2.4-4.377,7.217,0,4.692-1.666,5.3-2.513,6.355a1.022,1.022,0,0,0,.874,1.642h15.4A1.022,1.022,0,0,0,24.128,19.226Z" transform="translate(-6.761 -3.93)" fill="#a0a0a0"/>
</svg>
