<svg xmlns="http://www.w3.org/2000/svg" width="21.736" height="24" viewBox="0 0 21.736 24">
  <path id="Icon_ionic-md-share" data-name="Icon ionic-md-share" d="M21.1,19.068a3.3,3.3,0,0,0-2.362.9l-8.658-5a4.055,4.055,0,0,0,.121-.844,4.053,4.053,0,0,0-.121-.844l8.537-4.944A3.623,3.623,0,1,0,17.47,5.681a4.031,4.031,0,0,0,.121.844L9.055,11.469A3.644,3.644,0,0,0,6.572,10.5,3.585,3.585,0,0,0,3,14.123a3.645,3.645,0,0,0,6.115,2.653l8.6,5a3.025,3.025,0,0,0-.121.784,3.512,3.512,0,1,0,3.512-3.5Z" transform="translate(-3 -2.063)" fill="#a0a0a0"/>
</svg>
