<svg xmlns="http://www.w3.org/2000/svg" width="21.993" height="22.909" viewBox="0 0 21.993 22.909">
  <path id="Icon_material-add-shopping-cart" data-name="Icon material-add-shopping-cart" d="M11.909,9.727h2.182V6.455h3.273V4.273H14.091V1H11.909V4.273H8.636V6.455h3.273ZM7.545,19.545a2.182,2.182,0,1,0,2.182,2.182A2.179,2.179,0,0,0,7.545,19.545Zm10.909,0a2.182,2.182,0,1,0,2.182,2.182A2.179,2.179,0,0,0,18.455,19.545ZM7.731,16l.033-.131.982-1.778h8.127a2.171,2.171,0,0,0,1.909-1.124L22.993,5.32l-1.9-1.047h-.011l-1.2,2.182-3.011,5.455H9.215l-.142-.295L6.629,6.455,5.593,4.273,4.567,2.091H1V4.273H3.182l3.927,8.28L5.636,15.225a2.109,2.109,0,0,0-.273,1.047,2.188,2.188,0,0,0,2.182,2.182H20.636V16.273H8A.277.277,0,0,1,7.731,16Z" transform="translate(-1 -1)" fill="#1da1f2"/>
</svg>
