<svg xmlns="http://www.w3.org/2000/svg" width="18" height="16.615" viewBox="0 0 18 16.615">
  <path id="Icon_ionic-md-heart-empty" data-name="Icon ionic-md-heart-empty" d="M16.425,4.5a5.324,5.324,0,0,0-4.05,1.9,5.324,5.324,0,0,0-4.05-1.9,4.894,4.894,0,0,0-4.95,4.98c0,3.44,3.059,6.2,7.693,10.458l1.307,1.177,1.307-1.177c4.634-4.258,7.693-7.018,7.693-10.458A4.894,4.894,0,0,0,16.425,4.5Zm-3.5,14.249-.182.169-.372.337L12,18.917l-.182-.169A55,55,0,0,1,6.512,13.47,6.349,6.349,0,0,1,4.764,9.48,3.6,3.6,0,0,1,5.789,6.914a3.521,3.521,0,0,1,2.536-1.03,3.968,3.968,0,0,1,2.99,1.406l1.06,1.259,1.06-1.259a3.954,3.954,0,0,1,2.99-1.406,3.539,3.539,0,0,1,2.54,1.03A3.606,3.606,0,0,1,19.99,9.48a6.382,6.382,0,0,1-1.748,3.989A55.109,55.109,0,0,1,12.929,18.749Z" transform="translate(-3.375 -4.5)" fill="#a0a0a0"/>
</svg>
