<svg xmlns="http://www.w3.org/2000/svg" width="18" height="18" viewBox="0 0 18 18">
  <g id="Icon_ionic-ios-timer" data-name="Icon ionic-ios-timer" transform="translate(-3.938 -3.938)">
    <path id="Path_9980" data-name="Path 9980" d="M12.94,21.937A9,9,0,0,1,6.692,6.457a.723.723,0,1,1,1,1.04A7.555,7.555,0,1,0,13.66,5.418V8.235a.725.725,0,0,1-1.449,0V4.662a.724.724,0,0,1,.725-.724,9,9,0,1,1,0,18Z" transform="translate(0 0)" fill="#a0a0a0"/>
    <path id="Path_9981" data-name="Path 9981" d="M12,11.34l4.664,3.352a1.411,1.411,0,0,1-1.641,2.3,1.363,1.363,0,0,1-.328-.328L11.34,12A.47.47,0,0,1,12,11.34Z" transform="translate(-2.723 -2.725)" fill="#a0a0a0"/>
  </g>
</svg>
