<svg xmlns="http://www.w3.org/2000/svg" width="22" height="22" viewBox="0 0 22 22">
  <path id="Icon_metro-feed3" data-name="Icon metro-feed3" d="M20.9,1.928H6.238A3.678,3.678,0,0,0,2.571,5.6V20.261a3.677,3.677,0,0,0,3.667,3.667H20.9a3.677,3.677,0,0,0,3.667-3.667V5.6A3.677,3.677,0,0,0,20.9,1.928ZM8.564,19.787a1.863,1.863,0,1,1,1.87-1.861A1.864,1.864,0,0,1,8.564,19.787Zm4.695.016A6.568,6.568,0,0,0,6.7,13.227v-2.69A9.275,9.275,0,0,1,15.96,19.8h-2.7Zm4.773,0A11.351,11.351,0,0,0,6.7,8.46V5.77A14.049,14.049,0,0,1,20.729,19.8h-2.7Z" transform="translate(-2.571 -1.928)" fill="#a0a0a0"/>
</svg>
