<svg xmlns="http://www.w3.org/2000/svg" width="24" height="16" viewBox="0 0 24 16">
  <g id="money" transform="translate(0 -82.363)">
    <rect id="Rectangle_4057" data-name="Rectangle 4057" width="24" height="16" rx="1" transform="translate(0 82.363)" fill="#1da1f2"/>
    <path id="Path_9950" data-name="Path 9950" d="M63.7,174.249a.778.778,0,0,1-.774-.778.519.519,0,0,0-.518-.52H46.6a.516.516,0,0,0-.366.153.522.522,0,0,0-.152.368.774.774,0,0,1-.226.55.765.765,0,0,1-.546.227h0a.516.516,0,0,0-.366.152.522.522,0,0,0-.152.368v7.5a.519.519,0,0,0,.517.52.778.778,0,0,1,.774.779.519.519,0,0,0,.518.52h15.81a.516.516,0,0,0,.366-.153.522.522,0,0,0,.152-.368.774.774,0,0,1,.226-.55.765.765,0,0,1,.546-.227h0a.516.516,0,0,0,.366-.152.522.522,0,0,0,.152-.368v-7.5A.519.519,0,0,0,63.7,174.249Zm-1.277,8.029a1.811,1.811,0,0,0-.455.765H47.045a1.823,1.823,0,0,0-1.216-1.223v-6.606a1.82,1.82,0,0,0,1.216-1.223H61.969a1.823,1.823,0,0,0,1.216,1.223v6.606A1.8,1.8,0,0,0,62.425,182.278Z" transform="translate(-42.461 -88.053)" fill="#e6f5ff"/>
    <text id="COD" transform="translate(12 92.964)" fill="#fff" font-size="7" font-family="SFUIText-Bold, SF UI Text" font-weight="700"><tspan x="-7.96" y="0">COD</tspan></text>
  </g>
</svg>
