<svg xmlns="http://www.w3.org/2000/svg" width="36" height="36" viewBox="0 0 36 36">
  <g id="Group_11227" data-name="Group 11227" transform="translate(-16 -57)">
    <circle id="Ellipse_4" data-name="Ellipse 4" cx="18" cy="18" r="18" transform="translate(16 57)" fill="#fff" opacity="0.5"/>
    <path id="Icon_ionic-ios-arrow-round-back" data-name="Icon ionic-ios-arrow-round-back" d="M15.128,11.507a.908.908,0,0,1,.007,1.278l-4.217,4.231H26.986a.9.9,0,0,1,0,1.806H10.918l4.224,4.231a.914.914,0,0,1-.007,1.278.9.9,0,0,1-1.271-.007L8.139,18.558h0a1.014,1.014,0,0,1-.188-.285.862.862,0,0,1-.069-.347.905.905,0,0,1,.257-.632l5.724-5.766A.885.885,0,0,1,15.128,11.507Z" transform="translate(16.118 57.078)" fill="#fff"/>
  </g>
</svg>
