<svg xmlns="http://www.w3.org/2000/svg" width="20" height="20" viewBox="0 0 20 20">
  <path id="Icon_awesome-minus-square" data-name="Icon awesome-minus-square" d="M17.857,2.25H2.143A2.143,2.143,0,0,0,0,4.393V20.107A2.143,2.143,0,0,0,2.143,22.25H17.857A2.143,2.143,0,0,0,20,20.107V4.393A2.143,2.143,0,0,0,17.857,2.25ZM4.107,14.036a.537.537,0,0,1-.536-.536V11a.537.537,0,0,1,.536-.536H15.893a.537.537,0,0,1,.536.536v2.5a.537.537,0,0,1-.536.536Z" transform="translate(0 -2.25)" fill="#1da1f2"/>
</svg>
