<svg xmlns="http://www.w3.org/2000/svg" width="33.18" height="27" viewBox="0 0 33.18 27">
  <path id="Icon_ionic-logo-twitter" data-name="Icon ionic-logo-twitter" d="M34.123,6.2a13.763,13.763,0,0,1-3.909,1.076,6.831,6.831,0,0,0,3-3.769,13.527,13.527,0,0,1-4.324,1.652A6.805,6.805,0,0,0,17.107,9.813a6.665,6.665,0,0,0,.176,1.554A19.292,19.292,0,0,1,3.248,4.245a6.821,6.821,0,0,0,2.116,9.1,6.649,6.649,0,0,1-3.094-.851v.084a6.813,6.813,0,0,0,5.463,6.68,6.852,6.852,0,0,1-1.793.239,6.422,6.422,0,0,1-1.28-.127A6.818,6.818,0,0,0,11.025,24.1a13.648,13.648,0,0,1-8.459,2.918,13.8,13.8,0,0,1-1.624-.1A19.028,19.028,0,0,0,11.362,30C23.9,30,30.748,19.615,30.748,10.608c0-.3-.007-.591-.021-.879A13.857,13.857,0,0,0,34.123,6.2Z" transform="translate(-0.942 -3)" fill="#1da1f2"/>
</svg>
