<svg xmlns="http://www.w3.org/2000/svg" width="54" height="54" viewBox="0 0 54 54">
  <g id="Group_11293" data-name="Group 11293" transform="translate(-32 -309)">
    <circle id="Ellipse_2" data-name="Ellipse 2" cx="27" cy="27" r="27" transform="translate(32 309)" fill="#e6f5ff"/>
    <path id="sneakers_1_" data-name="sneakers (1)" d="M.541,11.391,1.594,6.126l.357-2.147A2.061,2.061,0,0,1,3.543,2.3L7.25,1.476,10.286.338a1.9,1.9,0,0,1,2.37.931l1,2a1,1,0,0,1,.089.247l.491,2.061a.506.506,0,0,0,.046.134l.309.618a.53.53,0,0,1,.193.283.633.633,0,0,1,.015.133l.366.733a.522.522,0,0,0,.132.159.593.593,0,0,1,.476.329c.007.015.011.036.017.053l.936.7a.65.65,0,0,1,.564.3.927.927,0,0,1,.076.138l.563.282a.649.649,0,0,1,.618.065,1.034,1.034,0,0,1,.354.423l1.142.567a.651.651,0,0,1,.618.065,1.035,1.035,0,0,1,.354.423l1.071.535a.517.517,0,0,1,.549.22c2.042.554,3.77,1.011,5.577,1.395.116.025.235.047.354.069a5.257,5.257,0,0,1,1.194.322c1.393.615,2,2.434,1.994,3.964a1.82,1.82,0,0,1-1.2,1.909,11.86,11.86,0,0,1-5.185,1.088H1.914A1.9,1.9,0,0,1,.2,19.425a2.673,2.673,0,0,1-.109-.256.521.521,0,0,1-.092-.3V15.2a4.78,4.78,0,0,1,.044-.841Zm29.822,4.3a.493.493,0,0,1-.117.053,48.348,48.348,0,0,1-7.5.508l-.014,0H22.2a.5.5,0,0,1-.057-.008c-7.194-.167-9.533-3.356-9.874-3.889a4.35,4.35,0,0,1-1.371.187c-1.9,0-4.912-.746-9.065-2.23l-.181.907a15.231,15.231,0,0,0,2.571.72,12.122,12.122,0,0,1,2.357.667c1.133.567,1.668,3.5,1.841,4.7h4.265c15.592,0,17.641-.457,17.786-.5a.527.527,0,0,1,.172-.03,4.484,4.484,0,0,0-.283-1.1ZM2.578,6.6l-.159.785a.465.465,0,0,1,.068.041A9.676,9.676,0,0,0,5.5,8.263a.525.525,0,0,0,.38-.075l4.5-2.865a.529.529,0,0,0,.139-.763l-.414-.553a.529.529,0,0,0-.619-.173Zm3.53,6.961a12.157,12.157,0,0,0-2.114-.584,18.528,18.528,0,0,1-2.53-.687L1.09,14.531a3.84,3.84,0,0,0-.031.666v2.114H7.353c-.261-1.676-.8-3.535-1.245-3.753Zm7.227-7.373A1.529,1.529,0,0,1,13.2,5.8l-.491-2.061-1-2a.843.843,0,0,0-1.053-.413L7.618,2.468a1.128,1.128,0,0,1-.138.04l-3.707.824a1.007,1.007,0,0,0-.778.818l-.2,1.22,6.3-2.52a1.589,1.589,0,0,1,1.857.521l.415.553a1.585,1.585,0,0,1-.415,2.287l-4.5,2.865a1.574,1.574,0,0,1-1.14.222,13.744,13.744,0,0,1-3.1-.829l-.159.8c8.575,3.079,10,2.139,10.2,1.913.158-.177.03-.485-.033-.609a.529.529,0,0,1,.945-.476,1.6,1.6,0,0,1-.023,1.656s.008.007.011.012c.018.033,1.891,3.189,8.784,3.418a5.534,5.534,0,0,0-.138-2.631l-.736-.37a3.979,3.979,0,0,1-.291.752.529.529,0,1,1-.948-.473,2.35,2.35,0,0,0,.258-.768l-1.134-.562a3.983,3.983,0,0,1-.291.751.529.529,0,1,1-.948-.473,2.35,2.35,0,0,0,.258-.768l-.69-.345a3.266,3.266,0,0,1-.8.96.529.529,0,1,1-.692-.8,2.134,2.134,0,0,0,.575-.687l-.709-.536a2.466,2.466,0,0,1-.946.951.529.529,0,1,1-.546-.9,1.237,1.237,0,0,0,.62-.7l-.091-.068a1.592,1.592,0,0,1-.4-.457,2.253,2.253,0,0,1-.917.624A.529.529,0,1,1,13,7.688a1.1,1.1,0,0,0,.719-.744Zm15.037,8.054c-.129-.024-.257-.047-.381-.075-1.653-.352-3.23-.761-5.038-1.247a6.207,6.207,0,0,1,.069,2.273,51.374,51.374,0,0,0,6.721-.423,1.563,1.563,0,0,0-.41-.28,4.4,4.4,0,0,0-.96-.248ZM1.149,18.949a.85.85,0,0,0,.765.475H25.372a10.8,10.8,0,0,0,4.7-.968c.426-.221.56-.337.6-.606-1.189.26-6.407.517-17.987.517H1.059v.362l.009.023a1.952,1.952,0,0,0,.081.2Zm0,0" transform="translate(43.119 325.62)" fill="#1da1f2"/>
  </g>
</svg>
